<svg xmlns="http://www.w3.org/2000/svg" width="42.517" height="42.517" viewBox="0 0 42.517 42.517">
  <path id="allo" d="M529.589,420.947a3.162,3.162,0,0,0-2.251-.941h-.01a3.154,3.154,0,0,0-3,2.126H522.9a13.7,13.7,0,0,0-3.66-7.415l.337-.337.005-.008a3.148,3.148,0,0,0,1.359.32h.01a3.189,3.189,0,0,0,.009-6.378h-.009a3.167,3.167,0,0,0-2.868,4.557l-.01.006-.421.421a13.674,13.674,0,0,0-7.342-2.806c0-.018.011-.033.011-.052v-1.256A3.183,3.183,0,0,0,509.268,403h-.01a3.18,3.18,0,0,0-1.063,6.184v1.256c0,.018.01.033.011.051a13.673,13.673,0,0,0-7.929,3.282l-.9-.9-.008-.005a3.18,3.18,0,0,0-2.859-4.558h-.01a3.189,3.189,0,0,0-.01,6.378h.01a3.174,3.174,0,0,0,1.369-.32l.005.008.894.894a13.656,13.656,0,0,0-3.158,6.893.949.949,0,0,0-.173-.035h-1.256a3.153,3.153,0,0,0-2.986-2.126h-.01a3.189,3.189,0,0,0-.01,6.378h.01a3.153,3.153,0,0,0,3-2.126h1.259a13.7,13.7,0,0,0,2.855,8.394l-.42.421-.005.008a3.148,3.148,0,0,0-1.359-.32h-.01a3.189,3.189,0,0,0-.01,6.378h.01a3.169,3.169,0,0,0,2.869-4.557l.008-.006.339-.338a13.693,13.693,0,0,0,8.476,3.785v1.31a3.183,3.183,0,0,0,1.053,6.184h.01a3.18,3.18,0,0,0,1.063-6.184v-1.308a13.677,13.677,0,0,0,7.92-3.281l.9.9.009.005A3.18,3.18,0,0,0,522,440.2h.01a3.189,3.189,0,0,0,.01-6.378h-.01a3.158,3.158,0,0,0-1.369.32l-.005-.009-.894-.894a13.709,13.709,0,0,0,3.331-8.944c0-.013,0-.026,0-.039h1.259a3.153,3.153,0,0,0,2.986,2.126h.009a3.188,3.188,0,0,0,2.261-5.437m-37.651,3a1.056,1.056,0,0,1-.749.309h0a1.063,1.063,0,0,1,0-2.126h0a1.063,1.063,0,0,1,.746,1.817m28.263-13.2a1.051,1.051,0,0,1,.749-.309h0a1.063,1.063,0,0,1,0,2.126h0a1.063,1.063,0,0,1-.746-1.817m-11.692-5.315a1.052,1.052,0,0,1,.749-.309h0a1.063,1.063,0,0,1,0,2.126h0a1.063,1.063,0,0,1-.746-1.817M496.5,412.566h0a1.063,1.063,0,0,1,0-2.126h0a1.063,1.063,0,0,1,0,2.126m.749,24.138a1.051,1.051,0,0,1-.749.309h0a1.063,1.063,0,0,1,0-2.126h0a1.063,1.063,0,0,1,.746,1.817m12.755,6.378a1.056,1.056,0,0,1-.749.309h0a1.063,1.063,0,0,1,0-2.126h0a1.063,1.063,0,0,1,.746,1.817m12.006-7.131h0a1.063,1.063,0,0,1,0,2.126h0a1.063,1.063,0,0,1,0-2.126m-1.063-11.658a11.677,11.677,0,0,1-10.629,11.6v-2.071a1.063,1.063,0,1,0-2.126,0v2.067a11.635,11.635,0,0,1-6.973-3.157l1.347-1.348a1.063,1.063,0,1,0-1.5-1.5l-1.25,1.25a11.677,11.677,0,0,1,16.317-16.317l-1.249,1.249a1.063,1.063,0,1,0,1.5,1.5l1.349-1.349a11.589,11.589,0,0,1,3.017,5.912h-1.928a1.063,1.063,0,0,0,0,2.126h2.124c0,.012,0,.022,0,.034m7.127-.343a1.055,1.055,0,0,1-.749.309h0a1.063,1.063,0,0,1,0-2.126h0a1.063,1.063,0,0,1,.746,1.817" transform="translate(-488 -403)" fill="#f1f1f1"/>
</svg>
