<svg xmlns="http://www.w3.org/2000/svg" width="53.71" height="42.968" viewBox="0 0 53.71 42.968">
  <path id="amb" d="M52.367,29.54H51.024V20.468a4.028,4.028,0,0,0-1.183-2.845L41.457,9.24a4.028,4.028,0,0,0-2.845-1.183h-3.7V4.028A4.029,4.029,0,0,0,30.883,0H4.028A4.029,4.029,0,0,0,0,4.028V30.883a4.029,4.029,0,0,0,4.028,4.028H5.371a8.056,8.056,0,1,0,16.113,0H32.226a8.056,8.056,0,1,0,16.113,0h4.028a1.347,1.347,0,0,0,1.343-1.343V30.883A1.347,1.347,0,0,0,52.367,29.54Zm-38.94,9.4a4.028,4.028,0,1,1,4.028-4.028A4.029,4.029,0,0,1,13.427,38.94ZM25.512,18.127a.673.673,0,0,1-.671.671h-4.7v4.7a.673.673,0,0,1-.671.671H15.442a.673.673,0,0,1-.671-.671V18.8h-4.7a.673.673,0,0,1-.671-.671V14.1a.673.673,0,0,1,.671-.671h4.7v-4.7a.673.673,0,0,1,.671-.671H19.47a.673.673,0,0,1,.671.671v4.7h4.7a.673.673,0,0,1,.671.671ZM40.282,38.94a4.028,4.028,0,1,1,4.028-4.028A4.029,4.029,0,0,1,40.282,38.94ZM47,21.484H34.911v-9.4h3.7L47,20.468Z" fill="#f9f9fb"/>
</svg>
