<svg xmlns="http://www.w3.org/2000/svg" width="33.368" height="33.368" viewBox="0 0 33.368 33.368">
  <g id="asume" transform="translate(-395 -365)">
    <path id="Path_28" data-name="Path 28" d="M520.639,417.085a2.482,2.482,0,0,0-1.767-.738h-.007a2.475,2.475,0,0,0-2.351,1.668h-1.125a10.748,10.748,0,0,0-2.872-5.819l.264-.264,0-.007a2.47,2.47,0,0,0,1.067.251h.007a2.5,2.5,0,0,0,.008-5.005h-.008a2.486,2.486,0,0,0-2.251,3.576l-.008.005-.33.33a10.731,10.731,0,0,0-5.762-2.2c0-.014.008-.026.008-.041v-.986a2.5,2.5,0,0,0-.827-4.853h-.008a2.5,2.5,0,0,0-.834,4.853v.986c0,.014.008.026.008.04a10.73,10.73,0,0,0-6.223,2.576l-.7-.7-.007,0a2.5,2.5,0,0,0-2.244-3.577h-.008a2.5,2.5,0,0,0-.008,5.005h.008a2.491,2.491,0,0,0,1.074-.251l0,.007.7.7a10.717,10.717,0,0,0-2.478,5.41.742.742,0,0,0-.136-.028h-.986a2.475,2.475,0,0,0-2.343-1.668H490.5a2.5,2.5,0,0,0-.008,5.005h.008a2.475,2.475,0,0,0,2.351-1.668h.988a10.754,10.754,0,0,0,2.241,6.588l-.329.33,0,.007a2.47,2.47,0,0,0-1.067-.251h-.008a2.5,2.5,0,0,0-.008,5.005h.008a2.487,2.487,0,0,0,2.252-3.576l.007-.005.266-.265a10.746,10.746,0,0,0,6.652,2.971v1.028a2.5,2.5,0,0,0,.827,4.853h.008a2.5,2.5,0,0,0,.834-4.853v-1.027a10.734,10.734,0,0,0,6.216-2.575l.7.7.007,0a2.5,2.5,0,0,0,2.244,3.577h.008a2.5,2.5,0,0,0,.008-5.005h-.008a2.479,2.479,0,0,0-1.074.251l0-.007-.7-.7a10.759,10.759,0,0,0,2.614-7.02c0-.01,0-.02,0-.031h.988a2.475,2.475,0,0,0,2.343,1.668h.008a2.5,2.5,0,0,0,1.774-4.267m-29.549,2.356a.829.829,0,0,1-.588.243h0a.834.834,0,0,1,0-1.668h0a.834.834,0,0,1,.586,1.426m22.181-10.359a.825.825,0,0,1,.588-.243h0a.834.834,0,0,1,0,1.668h0a.834.834,0,0,1-.586-1.426m-9.176-4.171a.825.825,0,0,1,.588-.243h0a.834.834,0,0,1,0,1.668h0a.834.834,0,0,1-.586-1.426m-9.422,5.6h0a.834.834,0,0,1,0-1.668h0a.834.834,0,0,1,0,1.668m.588,18.944a.825.825,0,0,1-.588.243h0a.834.834,0,0,1,0-1.668h0a.834.834,0,0,1,.586,1.426m10.01,5.005a.829.829,0,0,1-.588.243h0a.834.834,0,0,1,0-1.668h0a.834.834,0,0,1,.586,1.426m9.422-5.6h0a.834.834,0,0,1,0,1.668h0a.834.834,0,0,1,0-1.668m-.834-9.149a9.164,9.164,0,0,1-8.342,9.106v-1.625a.834.834,0,1,0-1.668,0v1.622a9.131,9.131,0,0,1-5.472-2.478l1.057-1.058a.834.834,0,0,0-1.18-1.18l-.981.981a9.165,9.165,0,0,1,12.806-12.806l-.98.98a.834.834,0,1,0,1.18,1.18l1.059-1.059a9.1,9.1,0,0,1,2.367,4.64h-1.513a.834.834,0,1,0,0,1.668h1.667c0,.009,0,.017,0,.027m5.593-.269a.829.829,0,0,1-.588.243h0a.834.834,0,0,1,0-1.668h0a.834.834,0,0,1,.586,1.426" transform="translate(-93 -38)" fill="#200e32"/>
    <path id="Path_29" data-name="Path 29" d="M504.51,415H504.5a2.5,2.5,0,0,0-.008,5.005h.008A2.5,2.5,0,0,0,504.51,415m.581,3.094a.829.829,0,0,1-.588.243h0a.834.834,0,0,1,0-1.668h0a.834.834,0,0,1,.586,1.426" transform="translate(-95.321 -35.819)" fill="#200e32"/>
    <path id="Path_30" data-name="Path 30" d="M511.51,423H511.5a2.5,2.5,0,0,0-.008,5.005h.008A2.5,2.5,0,0,0,511.51,423m.581,3.094a.829.829,0,0,1-.588.243h0a.834.834,0,0,1,0-1.668h0a.834.834,0,0,1,.586,1.426" transform="translate(-96.482 -43.819)" fill="#200e32"/>
  </g>
</svg>
