<svg xmlns="http://www.w3.org/2000/svg" width="41.132" height="41.129" viewBox="0 0 41.132 41.129">
  <path id="ca" d="M44.434,36.707a34.548,34.548,0,0,0-7.217-4.829c-2.163-1.039-2.955-1.017-4.486.086-1.274.921-2.1,1.777-3.566,1.456S24.807,30.914,22,28.12s-4.99-5.7-5.3-7.163.546-2.291,1.456-3.566c1.1-1.531,1.135-2.324.086-4.486a33.865,33.865,0,0,0-4.829-7.217c-1.574-1.574-1.927-1.231-2.795-.921A15.9,15.9,0,0,0,8.06,6.126,7.72,7.72,0,0,0,4.987,9.371c-.61,1.317-1.317,3.769,2.281,10.172a56.76,56.76,0,0,0,9.979,13.31h0l.011.011.011.011h0a56.982,56.982,0,0,0,13.31,9.979c6.4,3.6,8.855,2.891,10.172,2.281a7.588,7.588,0,0,0,3.244-3.073,15.9,15.9,0,0,0,1.36-2.559C45.665,38.635,46.019,38.281,44.434,36.707Z" transform="translate(-4.49 -4.503)" fill="#f9f9fb"/>
</svg>
