<svg xmlns="http://www.w3.org/2000/svg" width="28" height="36" viewBox="0 0 28 36">
  <g id="death" transform="translate(-292 -374)">
    <path id="Path_32" data-name="Path 32" d="M306.895,396.554a1.042,1.042,0,0,0-1.79,0l-1,2a1,1,0,0,0,1.79.894l.1-.211.106.211a1,1,0,0,0,1.79-.894Z" fill="#200e32"/>
    <path id="Path_33" data-name="Path 33" d="M302.5,389c-1.791,0-4.5,1.4-4.5,3.5a3.5,3.5,0,0,0,7,0c0-1.048,0-3.5-2.5-3.5m-1,5a1.5,1.5,0,0,1-1.5-1.5c0-.617,1.472-1.5,2.5-1.5.322,0,.5,0,.5,1.5a1.5,1.5,0,0,1-1.5,1.5" fill="#200e32"/>
    <path id="Path_34" data-name="Path 34" d="M309.5,389c-2.5,0-2.5,2.452-2.5,3.5a3.5,3.5,0,0,0,7,0c0-2.1-2.709-3.5-4.5-3.5m1,5a1.5,1.5,0,0,1-1.5-1.5c0-1.5.178-1.5.5-1.5,1.028,0,2.5.883,2.5,1.5a1.5,1.5,0,0,1-1.5,1.5" fill="#200e32"/>
    <path id="Path_35" data-name="Path 35" d="M316.9,396.454c.511-.745,3.1-4.706,3.1-8.451a13.931,13.931,0,0,0-4.163-10.342A12.526,12.526,0,0,0,307,374.006h-2l-.008,0a12.548,12.548,0,0,0-8.829,3.653A13.931,13.931,0,0,0,292,388c0,3.745,2.587,7.706,3.1,8.451l0,.035c-.053.63-.1,1.158-.1,1.512,0,1.377,2.035,2.637,6,3.756V404a1,1,0,0,0,1,1h8a1,1,0,0,0,1-1v-2.243c3.965-1.119,6-2.379,6-3.756,0-.354-.042-.882-.1-1.512l0-.035m-7.155,3.578c-.024.007-.042.024-.065.032a.99.99,0,0,0-.182.089.951.951,0,0,0-.154.1.919.919,0,0,0-.124.14,1.048,1.048,0,0,0-.107.158,1.032,1.032,0,0,0-.06.172.93.93,0,0,0-.041.2c0,.025-.014.045-.014.07v2h-6v-2c0-.025-.012-.045-.014-.07a.93.93,0,0,0-.041-.2,1.032,1.032,0,0,0-.06-.172,1.126,1.126,0,0,0-.107-.158.749.749,0,0,0-.279-.245.951.951,0,0,0-.181-.089c-.023-.008-.041-.025-.065-.032-.3-.078-.6-.163-.9-.252-.121-.036-.238-.075-.357-.112-.176-.055-.353-.109-.524-.165-.109-.036-.21-.074-.317-.111-.173-.059-.349-.119-.513-.18-.114-.041-.216-.083-.325-.125-.146-.058-.3-.115-.435-.17-.108-.045-.2-.087-.3-.131-.124-.054-.254-.108-.367-.161-.1-.044-.172-.086-.259-.13s-.205-.1-.291-.147-.135-.083-.2-.124-.152-.088-.21-.129a1.6,1.6,0,0,1-.123-.107,1.33,1.33,0,0,1-.125-.112c.008-.309.045-.73.086-1.221a19.333,19.333,0,0,0-.119-5.9,1,1,0,1,0-1.938.5,7.51,7.51,0,0,1,.2,1.367A11.477,11.477,0,0,1,294,388a11.976,11.976,0,0,1,3.554-8.9,10.682,10.682,0,0,1,7.413-3.093c.006,0,.011,0,.017,0l.016,0h2.033a10.605,10.605,0,0,1,7.413,3.093A11.976,11.976,0,0,1,318,388a11.477,11.477,0,0,1-1.226,4.614,7.51,7.51,0,0,1,.2-1.367,1,1,0,0,0-1.938-.5,19.333,19.333,0,0,0-.119,5.9c.041.493.078.916.086,1.225-.447.538-2.837,1.522-5.251,2.152" fill="#200e32"/>
    <path id="Path_36" data-name="Path 36" d="M312.273,403.313a10.082,10.082,0,0,0-2.244,3.447c-.3,1.216-1.959,1.24-2.029,1.24h-4c-.071,0-1.728-.024-2.03-1.241a10.057,10.057,0,0,0-2.244-3.446,1,1,0,0,0-1.453,1.375,8.505,8.505,0,0,1,1.756,2.554c.543,2.184,2.814,2.758,3.957,2.758h4.027c1.143,0,3.414-.574,3.957-2.758a8.505,8.505,0,0,1,1.756-2.554,1,1,0,0,0-1.453-1.375" fill="#200e32"/>
  </g>
</svg>
