<svg xmlns="http://www.w3.org/2000/svg" width="35.792" height="40.905" viewBox="0 0 35.792 40.905">
  <path id="Icon_map-police" data-name="Icon map-police" d="M23.828,17.375c0,2.871-2.377,2.871-3.658,2.871h-1.6V14.819H20.58C21.7,14.819,23.828,14.819,23.828,17.375ZM36.1,14.509a18.093,18.093,0,0,1,2.576-8.06L32.946.72a10.306,10.306,0,0,1-6.2,2.573,10.676,10.676,0,0,1-6.074-1.222,11.427,11.427,0,0,1-6.086,1.222A11.028,11.028,0,0,1,8.679.957L2.937,6.684a17.76,17.76,0,0,1,2.354,7.826A14.127,14.127,0,0,1,4.2,19.722c-.42,1.237-.738,2.311-.954,3.208a16.081,16.081,0,0,0-.367,2.157,10.545,10.545,0,0,0,2.005,6.434,23.492,23.492,0,0,0,5.279,4.615,34.192,34.192,0,0,0,6.2,2.626l1.2.559c.378.182.784.359,1.208.551a5.08,5.08,0,0,1,1.892,1.753,5.513,5.513,0,0,1,1.94-1.753q.784-.336,1.554-.706c.418-.183.729-.321.909-.406q.593-.287,1.208-.524c.5-.2,1.11-.435,1.842-.7a15.329,15.329,0,0,0,3.1-1.4,26.881,26.881,0,0,0,5.213-4.55,10.4,10.4,0,0,0,2.073-6.5A23.328,23.328,0,0,0,37.129,19.9,14,14,0,0,1,36.1,14.509ZM25.571,22.358a7.858,7.858,0,0,1-4.2.89h-2.68v7.334h-4.03V11.769h5.721c2.659,0,4.882.171,6.426,2.054a5.492,5.492,0,0,1,1.127,3.526,5.889,5.889,0,0,1-2.36,5.009Z" transform="translate(-2.881 -0.72)" fill="#f9f9fb"/>
</svg>
