<svg xmlns="http://www.w3.org/2000/svg" width="162.015" height="58.418" viewBox="0 0 162.015 58.418">
  <g id="Group_79" data-name="Group 79" transform="translate(-118.126 -211.494)">
    <g id="combined" transform="translate(130.858 211.494)">
      <g id="Group_74" data-name="Group 74" transform="translate(0 19.472)">
        <path id="Path_45" data-name="Path 45" d="M175.352,247.433v12.982l-11.242,6.49L152.867,273.4l-11.242,6.49v-12.98h0l11.24-6.491,11.243-6.49Z" transform="translate(-141.626 -247.433)" fill="#f9f9fb"/>
      </g>
      <g id="Group_75" data-name="Group 75" transform="translate(0)">
        <path id="Path_46" data-name="Path 46" d="M152.867,242.538V217.985l-11.242-6.49V249.03l10.848-6.265Z" transform="translate(-141.626 -211.495)" fill="#f9f9fb"/>
        <path id="Path_47" data-name="Path 47" d="M183.125,280.487V292.06l11.242,6.49V274l-10.848,6.263Z" transform="translate(-160.64 -240.133)" fill="#f9f9fb"/>
      </g>
    </g>
    <g id="Group_76" data-name="Group 76" transform="translate(167.577 230.966)">
      <path id="Path_48" data-name="Path 48" d="M209.4,268.5V247.433h4.116v8.525h10.21v-8.525h4.084V268.5h-4.084V259.75h-10.21V268.5Z" transform="translate(-209.397 -247.433)" fill="#f9f9fb"/>
      <path id="Path_49" data-name="Path 49" d="M248.577,268.5l9.011-21.069h3.339l8.978,21.069h-4.278l-1.653-3.922h-9.465l-1.621,3.922Zm10.664-15.267-3.176,7.65h6.385Z" transform="translate(-227.349 -247.433)" fill="#f9f9fb"/>
      <path id="Path_50" data-name="Path 50" d="M293.2,268.5V247.433h4.052l7.52,13.257,7.52-13.257h4.051V268.5h-4.051V255.115l-6.159,11.021h-2.722l-6.159-11.021V268.5Z" transform="translate(-247.796 -247.433)" fill="#f9f9fb"/>
      <path id="Path_51" data-name="Path 51" d="M359.586,268.5H342.731v-3.144l11.052-14.132H342.829v-3.793h16.693v3.177l-11.086,14.1h11.15Z" transform="translate(-270.49 -247.433)" fill="#f9f9fb"/>
      <path id="Path_52" data-name="Path 52" d="M377.786,268.5l9.011-21.069h3.338l8.98,21.069h-4.28l-1.653-3.922h-9.465L382.1,268.5Zm10.663-15.267-3.176,7.65h6.386Z" transform="translate(-286.552 -247.433)" fill="#f9f9fb"/>
    </g>
    <g id="Group_77" data-name="Group 77" transform="translate(167.577 255.126)">
      <path id="Path_53" data-name="Path 53" d="M209.4,306.81V292.024h5.8a7.392,7.392,0,0,1,5.414,2.139,7.02,7.02,0,0,1,2.183,5.254,7.1,7.1,0,0,1-2.183,5.277,7.464,7.464,0,0,1-5.414,2.116Zm1.637-13.261v11.76H215.2a5.828,5.828,0,0,0,5.914-5.892,5.578,5.578,0,0,0-1.729-4.185,5.749,5.749,0,0,0-4.185-1.683Z" transform="translate(-209.397 -292.024)" fill="#f9f9fb"/>
      <path id="Path_54" data-name="Path 54" d="M240.21,306.81l6.55-14.786h1.274l6.528,14.786h-1.706l-1.525-3.481H243.44l-1.524,3.481Zm7.187-12.443-3.275,7.461h6.552Z" transform="translate(-223.515 -292.024)" fill="#f9f9fb"/>
      <path id="Path_55" data-name="Path 55" d="M274.926,306.81V292.024h1.637v6.529h9.212v-6.529h1.615V306.81h-1.615v-6.733h-9.212v6.733Z" transform="translate(-239.422 -292.024)" fill="#f9f9fb"/>
      <path id="Path_56" data-name="Path 56" d="M308.676,306.81V292.024h1.638l6.119,10.714,6.141-10.714h1.615V306.81h-1.615V295.118l-5.617,9.8H315.91l-5.6-9.781V306.81Z" transform="translate(-254.886 -292.024)" fill="#f9f9fb"/>
      <path id="Path_57" data-name="Path 57" d="M345.534,306.81l6.552-14.786h1.273l6.529,14.786h-1.706l-1.525-3.481h-7.892l-1.524,3.481Zm7.188-12.443-3.275,7.461H356Z" transform="translate(-271.774 -292.024)" fill="#f9f9fb"/>
      <path id="Path_58" data-name="Path 58" d="M380.25,306.81V292.024h1.411l9.554,11.965V292.024h1.57V306.81h-1.41l-9.554-11.942V306.81Z" transform="translate(-287.681 -292.024)" fill="#f9f9fb"/>
      <path id="Path_59" data-name="Path 59" d="M414.128,306.81V292.024h1.638V306.81Z" transform="translate(-303.203 -292.024)" fill="#f9f9fb"/>
    </g>
    <g id="Group_78" data-name="Group 78" transform="translate(118.126 211.494)">
      <path id="Path_60" data-name="Path 60" d="M127.881,299.179h-8.619v-1.933l5.122-2.894-5.122-2.881v-1.933h8.619v1.933h-4.974l4.051,2.241V295l-4.051,2.241h4.974Z" transform="translate(-118.647 -247.253)" fill="#f9f9fb"/>
      <path id="Path_61" data-name="Path 61" d="M124.018,281.394a2.805,2.805,0,0,1-.961-2.167,2.9,2.9,0,0,1,.591-1.773h-.431v-1.835h6.4v1.835h-.443a2.917,2.917,0,0,1-.358,3.94,3.484,3.484,0,0,1-2.4.862A3.442,3.442,0,0,1,124.018,281.394Zm2.388-1.059a1.433,1.433,0,1,0,0-2.856,1.493,1.493,0,0,0-1.083.418,1.344,1.344,0,0,0-.444,1.009A1.469,1.469,0,0,0,126.406,280.335Z" transform="translate(-120.385 -240.876)" fill="#f9f9fb"/>
      <path id="Path_62" data-name="Path 62" d="M121.758,267.592a2.806,2.806,0,0,1-.961-2.167,2.9,2.9,0,0,1,.591-1.773h-3.263v-1.835h9.235v1.835h-.443a2.917,2.917,0,0,1-.358,3.94,3.483,3.483,0,0,1-2.4.861A3.441,3.441,0,0,1,121.758,267.592Zm2.388-1.059a1.433,1.433,0,1,0,0-2.857,1.494,1.494,0,0,0-1.083.419,1.344,1.344,0,0,0-.444,1.009A1.469,1.469,0,0,0,124.147,266.533Z" transform="translate(-118.126 -234.552)" fill="#f9f9fb"/>
      <path id="Path_63" data-name="Path 63" d="M127.083,252.581a1.586,1.586,0,0,0,1.12-1.564,1.562,1.562,0,0,0-.566-1.268l.406-1.785a3.378,3.378,0,0,1,1.736,3.066,3.465,3.465,0,0,1-.961,2.5,3.4,3.4,0,0,1-4.789.024,3.494,3.494,0,0,1,0-4.839,3.212,3.212,0,0,1,2.388-.973,2.925,2.925,0,0,1,.665.074Zm-1.366-2.956a1.587,1.587,0,0,0-1.084,1.5,1.522,1.522,0,0,0,1.084,1.441Z" transform="translate(-120.385 -228.103)" fill="#f9f9fb"/>
      <path id="Path_64" data-name="Path 64" d="M118.126,235.156v-1.846h3.263a2.921,2.921,0,0,1,.37-3.928,3.448,3.448,0,0,1,2.4-.874,3.491,3.491,0,0,1,2.4.874,2.8,2.8,0,0,1,.961,2.167,2.865,2.865,0,0,1-.591,1.761h.431v1.846Zm6.021-1.871a1.427,1.427,0,1,0,0-2.844,1.5,1.5,0,0,0-1.083.418,1.3,1.3,0,0,0-.444,1A1.469,1.469,0,0,0,124.147,233.284Z" transform="translate(-118.126 -219.289)" fill="#f9f9fb"/>
      <path id="Path_65" data-name="Path 65" d="M129.706,220.36l-6.353,2.426v-1.909l3.952-1.391-3.952-1.441v-1.908l7.067,2.721a2.958,2.958,0,0,1,2.105,3.09v.222h-1.761v-.234a1.455,1.455,0,0,0-.961-1.539Z" transform="translate(-120.521 -213.621)" fill="#f9f9fb"/>
      <path id="Path_66" data-name="Path 66" d="M123.057,212.553a1.047,1.047,0,1,1,2.094,0,1.047,1.047,0,0,1-2.094,0Zm5.677-1.059a1.026,1.026,0,0,1,1.046,1.059,1.047,1.047,0,0,1-2.093,0A1.026,1.026,0,0,1,128.734,211.494Z" transform="translate(-120.385 -211.494)" fill="#f9f9fb"/>
    </g>
  </g>
</svg>
