<svg xmlns="http://www.w3.org/2000/svg" width="32.146" height="27.554" viewBox="0 0 32.146 27.554">
  <g id="newcase" transform="translate(-747.267)">
    <path id="Path_5" data-name="Path 5" d="M778.495,7.348H769.31V.918A.918.918,0,0,0,768.392,0H748.185a.918.918,0,0,0-.918.918V26.635a.918.918,0,0,0,.918.918h20.206a.918.918,0,0,0,.918-.918V9.185h8.266V25.717H773.9a.918.918,0,0,0,0,1.837h4.592a.918.918,0,0,0,.918-.918V8.266a.918.918,0,0,0-.918-.918M757.37,25.717H753.7V19.288h3.674Zm1.837-6.429h3.674v6.429h-3.674Zm8.266,6.429h-2.755V18.369a.918.918,0,0,0-.918-.918H752.778a.918.918,0,0,0-.918.918v7.348H749.1V1.837h18.369Z" fill="#200e32"/>
    <path id="Path_6" data-name="Path 6" d="M761.7,9.755h-1.837V7.918a.918.918,0,1,0-1.837,0V9.755h-1.837a.918.918,0,0,0,0,1.837h1.837v1.837a.918.918,0,1,0,1.837,0V11.592H761.7a.918.918,0,0,0,0-1.837" transform="translate(-0.652 -0.571)" fill="#200e32"/>
  </g>
</svg>
