<svg xmlns="http://www.w3.org/2000/svg" width="45.494" height="42.248" viewBox="0 0 45.494 42.248">
  <g id="past" transform="translate(-659.092 -181)">
    <path id="path157" d="M355.512,365.913l-.012,11.554c5.974,0,9.89-5.265,9.89-10.979,0-3.135-1.412-7.526-5.307-7.526-3.614,0-4.568,4.122-4.571,6.951" transform="translate(331.187 -173.729)" fill="#f9f9fb"/>
    <path id="path159" d="M326.906,393.775c1.532,1.239,2.751,1.753,6.657,1.753h1.351c3.6,0,4.52-1.041,4.52-3.588,0-2.341-.013-11.453-.013-11.453-7.846-2.215-13.066-6.327-17.814-10.877a4.559,4.559,0,0,1,3.255-1.644c4.286,0,8.27,5.346,14.352,7.128l0-6.9c.006-6.12,3.836-12.515,10.552-12.515a9.721,9.721,0,0,1,1.955.189,22.743,22.743,0,0,0-33.268,20.167,22.834,22.834,0,0,0,8.45,17.746" transform="translate(340.636 -172.28)" fill="#f9f9fb"/>
    <path id="path161" d="M366.872,362.322a10.741,10.741,0,0,1,1.248,5.14c0,7.135-5.132,14.16-12.382,15.308l0,15.063h2.632c3.965,0,5.4-.783,6.672-1.818a22.767,22.767,0,0,0,1.833-33.694" transform="translate(331.127 -174.586)" fill="#f9f9fb"/>
  </g>
</svg>
