<svg id="recovered" xmlns="http://www.w3.org/2000/svg" width="33.684" height="36.331" viewBox="0 0 33.684 36.331">
  <path id="Path_23" data-name="Path 23" d="M191.233,288.771a.992.992,0,0,1-.991.993h-3.97a.992.992,0,0,1,0-1.984h3.97A.991.991,0,0,1,191.233,288.771Z" transform="translate(-180.319 -264.653)" fill="#200e32"/>
  <path id="Path_24" data-name="Path 24" d="M202.147,213.213a.991.991,0,0,1-.991.992H186.271a.992.992,0,0,1,0-1.984h14.884A.992.992,0,0,1,202.147,213.213Z" transform="translate(-180.319 -199.016)" fill="#200e32"/>
  <path id="Path_25" data-name="Path 25" d="M202.147,250.993a.991.991,0,0,1-.991.991H186.271a.992.992,0,0,1,0-1.984h14.884A.992.992,0,0,1,202.147,250.993Z" transform="translate(-180.319 -231.834)" fill="#200e32"/>
  <g id="Group_7" data-name="Group 7" transform="translate(15.344 18.285)">
    <g id="Path_23-2" data-name="Path 23" transform="translate(0 0)">
      <path id="Path_26" data-name="Path 26" d="M281.867,252.929a11.925,11.925,0,0,0-5.615,2.75,13.375,13.375,0,0,0-2.018,2.223A15.539,15.539,0,0,0,271.8,263c0,.012,0,.018,0,.02a.729.729,0,0,1-.025.092.762.762,0,0,1-.028.077h0c-.011.028-.024.054-.037.08a.693.693,0,0,1-.043.075.683.683,0,0,1-.049.071.936.936,0,0,1-.147.158l-.038.031a.783.783,0,0,1-.075.054c-.022.014-.045.028-.068.041a.6.6,0,0,1-.066.031.287.287,0,0,1-.046.02l-.046.017a.788.788,0,0,1-.08.024,1,1,0,0,1-.244.03.878.878,0,0,1-.165-.014.358.358,0,0,1-.054-.01c-.029-.007-.056-.013-.084-.021l-.008,0-.078-.028h0c-.025-.011-.05-.022-.074-.034l-.012-.005c-.024-.013-.047-.026-.07-.041s-.049-.032-.071-.049a.442.442,0,0,1-.049-.039h0c-.016-.013-.031-.028-.046-.042h0a.833.833,0,0,1-.085-.095s-.005,0-.007-.007c-1.328-1.7-3.873-4.6-5.054-5.135a1.019,1.019,0,0,1,.847-1.854c1.353.617,3.336,2.766,4.609,4.263a17.093,17.093,0,0,1,3.835-5.962,13.986,13.986,0,0,1,7.236-3.807,1.019,1.019,0,0,1,.4,2Z" transform="translate(-264.347 -250.91)" fill="#200e32"/>
    </g>
  </g>
  <path id="Path_27" data-name="Path 27" d="M173.74,131.4a1.009,1.009,0,0,0,1.009-1.01V117.725a1.009,1.009,0,0,0-1.01-1.01h-3.027v-1.009a1.009,1.009,0,0,0-1.01-1.01h-3.156a4.041,4.041,0,0,0-3.908-3.027H159.61A4.041,4.041,0,0,0,155.7,114.7h-3.156a1.009,1.009,0,0,0-1.01,1.01v1.009H148.51a1.009,1.009,0,0,0-1.01,1.01v29.267A1.007,1.007,0,0,0,148.51,148h25.229a1.008,1.008,0,0,0,1.01-1.009v-8.544a1.009,1.009,0,0,0-2.018,0v7.534H149.518V118.734h2.018v1.01a1.008,1.008,0,0,0,1.01,1.009H169.7a1.008,1.008,0,0,0,1.01-1.009v-1.01h2.018v11.653A1.009,1.009,0,0,0,173.74,131.4Zm-5.047-12.663H153.555v-2.018h3.028a1.007,1.007,0,0,0,1.009-1.009,2.021,2.021,0,0,1,2.018-2.018h3.028a2.021,2.021,0,0,1,2.018,2.018,1.007,1.007,0,0,0,1.009,1.009h3.028Z" transform="translate(-147.5 -111.67)" fill="#200e32"/>
</svg>
