<svg xmlns="http://www.w3.org/2000/svg" width="42.917" height="42.917" viewBox="0 0 42.917 42.917">
  <path id="samu" d="M24.834,3.375A21.459,21.459,0,1,0,46.292,24.834,21.455,21.455,0,0,0,24.834,3.375ZM30.467,7.13A18.617,18.617,0,0,1,42.537,19.2l-9.161.619a9.906,9.906,0,0,0-3.5-3.508ZM11.7,11.7a18.437,18.437,0,0,1,7.5-4.57l.588,9.182a10.134,10.134,0,0,0-3.5,3.5L7.12,19.2A18.642,18.642,0,0,1,11.7,11.7Zm7.5,30.837A18.617,18.617,0,0,1,7.13,30.467l9.182-.588A9.988,9.988,0,0,0,19.8,33.366Zm5.633-10.688a7.015,7.015,0,1,1,7.015-7.015A7.023,7.023,0,0,1,24.834,31.849Zm13.133,6.118a18.505,18.505,0,0,1-7.5,4.57l-.609-9.172a9.938,9.938,0,0,0,3.518-3.528l9.161.619A18.473,18.473,0,0,1,37.967,37.967Z" transform="translate(-3.375 -3.375)" fill="#f9f9fb"/>
</svg>
