<svg xmlns="http://www.w3.org/2000/svg" width="107.316" height="43.204" viewBox="0 0 107.316 43.204">
  <g id="sos" transform="translate(-0.001 -118.718)">
    <path id="Path_42" data-name="Path 42" d="M18.63,136.265c-5.849-1.781-8.6-2.964-8.6-6.116,0-3.433,5.259-3.7,6.872-3.7a19.019,19.019,0,0,1,8.739,2.284,3.141,3.141,0,0,0,4.355-1.467l.628-1.385a3.141,3.141,0,0,0-1.324-4.037,25.508,25.508,0,0,0-12.114-3.127c-9.141,0-15.283,4.753-15.283,11.827,0,8.831,7.521,11.066,13.566,12.862,6.152,1.828,8.721,3.1,8.7,6.242,0,4.213-5.91,4.54-7.722,4.54a17.739,17.739,0,0,1-10.753-3.976,3.141,3.141,0,0,0-4.765,1.054l-.594,1.188a3.141,3.141,0,0,0,.79,3.811,24.47,24.47,0,0,0,15.265,5.6c9.514,0,15.907-5,15.907-12.438C32.33,140.436,24.734,138.123,18.63,136.265Z" transform="translate(0 0)" fill="#f9f9fb"/>
    <path id="Path_43" data-name="Path 43" d="M140.4,118.929c-12.542,0-22.367,9.451-22.367,21.517,0,12.129,9.824,21.63,22.367,21.63,12.51,0,22.31-9.5,22.31-21.63C162.709,128.38,152.909,118.929,140.4,118.929Zm0,35.641a14.4,14.4,0,0,1-14.635-14.125c0-7.758,6.565-14.069,14.635-14.069a14.1,14.1,0,1,1,0,28.193Z" transform="translate(-86.16 -0.154)" fill="#f9f9fb"/>
    <path id="Path_44" data-name="Path 44" d="M296.467,136.265c-5.849-1.781-8.6-2.965-8.6-6.116,0-3.433,5.26-3.7,6.873-3.7a19.018,19.018,0,0,1,8.739,2.284,3.141,3.141,0,0,0,4.355-1.467l.628-1.384a3.142,3.142,0,0,0-1.324-4.037,25.51,25.51,0,0,0-12.113-3.127c-9.142,0-15.283,4.753-15.283,11.827,0,8.831,7.521,11.066,13.565,12.862,6.152,1.828,8.72,3.1,8.7,6.242,0,4.213-5.911,4.541-7.723,4.541a17.74,17.74,0,0,1-10.753-3.976,3.141,3.141,0,0,0-4.765,1.054l-.594,1.188a3.141,3.141,0,0,0,.79,3.812,24.474,24.474,0,0,0,15.265,5.6c9.514,0,15.907-5,15.907-12.438C310.167,140.436,302.571,138.123,296.467,136.265Z" transform="translate(-202.815 0)" fill="#f9f9fb"/>
  </g>
</svg>
