<svg xmlns="http://www.w3.org/2000/svg" width="48.794" height="42.064" viewBox="0 0 48.794 42.064">
  <g id="tox" transform="translate(0 -35.309)">
    <g id="Group_72" data-name="Group 72" transform="translate(0 35.309)">
      <path id="Path_41" data-name="Path 41" d="M36.175,52.135a11.328,11.328,0,0,0-1.821.166,12.715,12.715,0,0,0,2.7-7.773A12.462,12.462,0,0,0,33.4,35.556a.841.841,0,0,0-1.19,1.19,10.794,10.794,0,0,1,3.162,7.77A11.039,11.039,0,0,1,33,51.3a10.9,10.9,0,0,0-17.19-.032c-3.375-4.522-3.14-10.781.751-14.509A.841.841,0,1,0,15.4,35.543c-4.52,4.329-4.814,11.573-.91,16.767a11.327,11.327,0,0,0-1.874-.175A12.633,12.633,0,0,0,0,64.754a.841.841,0,0,0,1.683,0A10.949,10.949,0,0,1,12.619,53.817a9.659,9.659,0,0,1,1.629.153,10.9,10.9,0,0,0,8.583,14.864,10.792,10.792,0,0,1-10.211,6.856.841.841,0,0,0,0,1.683A12.454,12.454,0,0,0,24.4,69.457a12.454,12.454,0,0,0,11.778,7.916.841.841,0,0,0,0-1.683,10.792,10.792,0,0,1-10.211-6.856A10.9,10.9,0,0,0,34.546,53.97a9.659,9.659,0,0,1,1.629-.153A10.949,10.949,0,0,1,47.112,64.754a.841.841,0,1,0,1.682,0A12.634,12.634,0,0,0,36.175,52.135ZM23.319,67.21a9.244,9.244,0,0,1-7.43-12.821,10.948,10.948,0,0,1,1.269.538,11.834,11.834,0,0,0,1.528.9,12.142,12.142,0,0,1,1.6,1.333c-.011.053-.011.109-.02.164a3.83,3.83,0,0,0-.071.7,4.192,4.192,0,0,0,.079.78c.014.077.037.149.056.224a4.165,4.165,0,0,0,.162.519c.029.077.061.151.1.225a4.214,4.214,0,0,0,.259.478c.038.06.072.121.114.179a4.049,4.049,0,0,0,.42.509c.021.022.038.047.06.068a4.243,4.243,0,0,0,.564.467c.082.056.172.1.257.152a3.994,3.994,0,0,0,.369.2,3.81,3.81,0,0,0,.374.148c.054.019.1.046.159.064a10.847,10.847,0,0,1,.4,2.91A10.994,10.994,0,0,1,23.319,67.21ZM24.4,53.817a4.226,4.226,0,0,0-.841.085,4.175,4.175,0,0,0-.5.154c-.1.032-.2.051-.287.089a4.22,4.22,0,0,0-1.365.927,11.142,11.142,0,0,1-2.033-.8,13.447,13.447,0,0,0-1.218-.72,9.039,9.039,0,0,1-1.208-.992,9.22,9.22,0,0,1,14.895-.008,10.711,10.711,0,0,1-1.425,1.115c-.286.156-.565.326-.842.506a10.958,10.958,0,0,1-2.187.9,4.216,4.216,0,0,0-1.365-.926c-.087-.037-.183-.054-.273-.085a4.062,4.062,0,0,0-.511-.158A4.233,4.233,0,0,0,24.4,53.817ZM25.475,67.21a10.981,10.981,0,0,1-.236-2.263,10.848,10.848,0,0,1,.4-2.91c.056-.018.105-.045.159-.064a3.787,3.787,0,0,0,.374-.148,4.006,4.006,0,0,0,.369-.2c.086-.051.175-.1.257-.152a4.245,4.245,0,0,0,.564-.467c.022-.021.039-.046.06-.068a4.057,4.057,0,0,0,.42-.509c.041-.058.076-.119.114-.179a4.229,4.229,0,0,0,.259-.478c.034-.074.066-.148.1-.225a4.166,4.166,0,0,0,.162-.519c.018-.075.041-.148.056-.224a4.192,4.192,0,0,0,.079-.78,3.829,3.829,0,0,0-.071-.7c-.009-.055-.009-.111-.02-.164a12.148,12.148,0,0,1,1.7-1.408,12.625,12.625,0,0,0,1.243-.734,11.077,11.077,0,0,1,1.453-.628,9.244,9.244,0,0,1-7.43,12.821Z" transform="translate(0 -35.309)" fill="#f9f9fb"/>
    </g>
  </g>
</svg>
