<svg xmlns="http://www.w3.org/2000/svg" width="20" height="37" viewBox="0 0 20 37">
  <path id="trt" d="M71,188H53a1,1,0,0,0-1,1v16a4.773,4.773,0,0,0,1.249,3.66,17.467,17.467,0,0,0,3.438,2.72c.455.3,1.05.694,1.313.921V214a3.6,3.6,0,0,0,3.041,3.914c.227,2.843,1.535,6.1,4.671,7.044A1.029,1.029,0,0,0,66,225a1,1,0,0,0,.288-1.958c-2.474-.744-3.086-3.638-3.237-5.153A3.593,3.593,0,0,0,66,214v-1.7c.263-.227.858-.621,1.312-.921a17.443,17.443,0,0,0,3.439-2.72A4.773,4.773,0,0,0,72,205V189a1,1,0,0,0-1-1m-1,17a2.86,2.86,0,0,1-.751,2.34,15.941,15.941,0,0,1-3.039,2.371c-1.352.893-2.1,1.384-2.2,2.155A1,1,0,0,0,64,212v2c0,1.383-.617,2-2,2s-2-.617-2-2v-2a1,1,0,0,0-.009-.134c-.1-.771-.849-1.262-2.2-2.155a15.941,15.941,0,0,1-3.039-2.371A2.86,2.86,0,0,1,54,205V194.517c1.46-.974,3.51-.87,5.478.336a7.845,7.845,0,0,0,4.1,1.107,6.2,6.2,0,0,0,4.152-1.283.968.968,0,0,0-.052-1.358,1.033,1.033,0,0,0-1.411-.005,6.147,6.147,0,0,1-5.75-.167A7.356,7.356,0,0,0,54,192.264V190H70Z" transform="translate(-52 -188)" fill="#200e32"/>
</svg>
